<?xml version="1.0" standalone="no"?><!DOCTYPE svg PUBLIC "-//W3C//DTD SVG 1.1//EN" "http://www.w3.org/Graphics/SVG/1.1/DTD/svg11.dtd">
<svg t="1609388318834" fill="#bfbfbf" class="icon" viewBox="0 0 1024 1024" version="1.1" xmlns="http://www.w3.org/2000/svg" p-id="1728" xmlns:xlink="http://www.w3.org/1999/xlink" width="200" height="200"><defs><style type="text/css"></style></defs><path d="M940.3 847.4L764.1 671.2c-1-1-2.1-2-3.2-3 44.1-62.5 70-138.7 70-221 0-211.8-171.7-383.4-383.4-383.4S64.1 235.5 64.1 447.3s171.7 383.4 383.4 383.4c82.1 0 158.2-25.8 220.6-69.8 1 1.1 2 2.2 3 3.2l176.2 176.2c12.8 12.8 29.7 19.3 46.5 19.3s33.6-6.4 46.5-19.3c25.6-25.6 25.6-67.2 0-92.9zM555.8 703.7c-34.2 14.5-70.7 21.8-108.3 21.8s-74-7.3-108.3-21.8c-33.1-14-62.9-34.1-88.5-59.7S205 588.6 191 555.5c-14.5-34.2-21.8-70.7-21.8-108.3s7.3-74 21.8-108.3c14-33.1 34.1-62.9 59.7-88.5s55.4-45.7 88.5-59.7c34.2-14.5 70.7-21.8 108.3-21.8s74 7.3 108.3 21.8c33.1 14 62.9 34.1 88.5 59.7s45.7 55.4 59.7 88.5c14.5 34.2 21.8 70.7 21.8 108.3s-7.3 74-21.8 108.3c-14 33.1-34.1 62.9-59.7 88.5s-55.4 45.7-88.5 59.7z" p-id="1729" style="user-select: auto;">
</path></svg>